HIERARCHY
ROOT Hips
{
    OFFSET 0.000000 0.000000 0.000000
    CHANNELS 6 Xposition Yposition Zposition Zrotation Xrotation Yrotation
    JOINT Spine
    {
        OFFSET -0.000000 8.249566 0.000000
        CHANNELS 3 Zrotation Xrotation Yrotation
        JOINT Spine1
        {
            OFFSET -0.000000 22.751984 0.000000
            CHANNELS 3 Zrotation Xrotation Yrotation
            JOINT Neck
            {
                OFFSET -0.000000 22.658548 2.059868
                CHANNELS 3 Zrotation Xrotation Yrotation
                JOINT Head
                {
                    OFFSET -0.000000 14.084625 -2.012089
                    CHANNELS 3 Zrotation Xrotation Yrotation
                    End Site
                    {
                        OFFSET -0.000000 25.151115 0.000000
                    }
                }
            }
            JOINT LeftShoulder
            {
                OFFSET 4.014710 20.418900 0.142539
                CHANNELS 3 Zrotation Xrotation Yrotation
                JOINT LeftArm
                {
                    OFFSET 12.409162 0.000000 0.000000
                    CHANNELS 3 Zrotation Xrotation Yrotation
                    JOINT LeftForeArm
                    {
                        OFFSET 32.111938 0.000000 0.000000
                        CHANNELS 3 Zrotation Xrotation Yrotation
                        JOINT LeftHand
                        {
                            OFFSET 25.320286 0.000000 0.000000
                            CHANNELS 3 Zrotation Xrotation Yrotation
                            End Site
                            {
                                OFFSET 15.090670 0.000000 0.000000
                            }
                        }
                    }
                }
            }
            JOINT RightShoulder
            {
                OFFSET -4.019371 20.418900 0.142539
                CHANNELS 3 Zrotation Xrotation Yrotation
                JOINT RightArm
                {
                    OFFSET -12.409162 0.000000 0.000000
                    CHANNELS 3 Zrotation Xrotation Yrotation
                    JOINT RightForeArm
                    {
                        OFFSET -32.111938 0.000000 0.000000
                        CHANNELS 3 Zrotation Xrotation Yrotation
                        JOINT RightHand
                        {
                            OFFSET -25.320286 0.000000 0.000000
                            CHANNELS 3 Zrotation Xrotation Yrotation
                            End Site
                            {
                                OFFSET -15.090670 0.000000 0.000000
                            }
                        }
                    }
                }
            }
        }
    }
    JOINT LeftUpLeg
    {
        OFFSET 10.060447 0.000000 0.000000
        CHANNELS 3 Zrotation Xrotation Yrotation
        JOINT LeftLeg
        {
            OFFSET -0.000000 -49.683781 0.000000
            CHANNELS 3 Zrotation Xrotation Yrotation
            JOINT LeftFoot
            {
                OFFSET -0.000000 -37.035061 0.000000
                CHANNELS 3 Zrotation Xrotation Yrotation
                JOINT LeftToeBase
                {
                    OFFSET -0.000000 -6.539289 15.090670
                    CHANNELS 3 Zrotation Xrotation Yrotation
                    End Site
                    {
                        OFFSET -0.000000 0.000000 4.024179
                    }
                }
            }
        }
    }
    JOINT RightUpLeg
    {
        OFFSET -10.060447 0.000000 0.000000
        CHANNELS 3 Zrotation Xrotation Yrotation
        JOINT RightLeg
        {
            OFFSET -0.000000 -49.683781 0.000000
            CHANNELS 3 Zrotation Xrotation Yrotation
            JOINT RightFoot
            {
                OFFSET -0.000000 -37.035061 0.000000
                CHANNELS 3 Zrotation Xrotation Yrotation
                JOINT RightToeBase
                {
                    OFFSET -0.000000 -6.539289 15.090670
                    CHANNELS 3 Zrotation Xrotation Yrotation
                    End Site
                    {
                        OFFSET -0.000000 0.000000 4.024179
                    }
                }
            }
        }
    }
}
MOTION
Frames:    14
Frame Time:    0.008333
-6.325711    97.414932    115.497208    -0.664428    -2.020655    -176.127014    -0.055432    4.561765    -0.613683    -2.045756    -2.890599    -0.667471    4.471577    -6.231247    0.553169    -1.786102    2.112034    -0.558798    20.554766    -3.034137    -2.573313    -26.061287    2.049292    0.326172    1.295258    3.322796    -0.251779    3.374988    3.085092    -8.164571    -17.027483    3.416435    -10.131631    22.415621    5.035725    10.112623    -0.791920    7.236797    -1.262138    5.530116    6.251800    -20.145864    1.443532    -6.082396    -5.850362    -2.325691    9.002076    1.137623    0.000000    0.000000    0.000000    0.000000    0.000000    0.000000    -2.733323    -4.728033    -4.636761    0.000000    0.000000    0.000000    0.000000    0.000000    0.000000    0.000000    0.000000    0.000000    
-6.322107    97.412727    115.463020    -0.657040    -2.029881    -176.202057    -0.053968    4.504376    -0.593087    -2.069149    -2.846015    -0.646654    4.521485    -6.112122    0.520999    -1.901554    2.097974    -0.612247    20.557745    -3.003019    -2.545244    -26.068867    2.072992    0.262184    1.277385    3.320783    -0.265376    3.432875    3.076978    -8.233833    -17.041561    3.374221    -10.111692    22.437809    5.026639    10.110547    -0.800341    7.177660    -1.260397    5.494818    6.199612    -20.127546    1.458204    -6.082793    -5.821232    -2.334695    9.048431    1.186211    2.518959    -4.351983    1.774969    0.000000    0.000000    0.000000    -2.705169    -4.711435    -4.368712    1.638058    9.671401    0.594146    -2.217825    -7.514200    -2.226185    0.000000    0.000000    0.000000    
-6.325945    97.406601    115.446381    -0.651708    -1.975192    -176.231628    -0.046147    4.548767    -0.580665    -2.078353    -2.809468    -0.633530    4.698537    -6.071806    0.566104    -2.215377    2.148693    -0.638021    20.573523    -3.043310    -2.553825    -26.118656    2.066511    0.240119    1.286247    3.339081    -0.301623    3.437516    3.094614    -8.259349    -17.009771    3.406225    -10.120837    22.378119    4.993333    10.129001    -0.778382    7.086432    -1.244741    5.423154    6.121500    -20.121897    1.466326    -6.051296    -5.812849    -2.404448    9.102030    1.353861    2.669961    -4.361904    1.766320    0.000000    0.000000    0.000000    -2.690165    -4.675636    -4.412427    1.638058    9.671401    0.594146    -2.233862    -7.456937    -2.172252    0.000000    0.000000    0.000000    
-6.324032    97.403366    115.424881    -0.643509    -1.962803    -176.279984    -0.030626    4.563759    -0.582535    -2.112745    -2.845405    -0.636317    4.731931    -5.927088    0.563045    -2.251038    2.139728    -0.646521    20.622000    -3.076530    -2.468395    -26.196314    2.111810    0.150954    1.308276    3.398076    -0.300072    3.372909    3.157953    -8.270676    -17.019915    3.385805    -10.056576    22.391895    5.023929    10.125980    -0.800967    6.997335    -1.291803    5.359648    6.045402    -20.069658    1.471779    -6.068723    -5.809929    -2.399942    9.217294    1.352298    2.658961    -4.429131    1.821024    0.000000    0.000000    0.000000    -2.668580    -4.673271    -4.389085    1.638058    9.671401    0.594146    -2.257014    -7.410551    -2.162467    0.000000    0.000000    0.000000    
-6.323227    97.384132    115.384201    -0.587297    -1.932095    -176.399246    0.033590    4.524888    -0.535914    -2.136103    -2.782024    -0.586554    4.606002    -5.660482    0.643394    -2.042966    1.850894    -0.505749    20.616138    -3.065385    -2.457045    -26.215855    2.076407    0.110444    1.313357    3.470099    -0.326144    3.337695    3.233268    -8.256908    -17.054150    3.370566    -10.052800    22.425747    5.009517    10.143476    -0.817483    6.971641    -1.291924    5.384614    6.014640    -20.078497    1.540658    -6.042308    -5.533852    -2.322728    9.353328    0.982880    2.578005    -4.644160    1.916842    0.000000    0.000000    0.000000    -2.593425    -4.659935    -4.381701    1.638058    9.671401    0.594146    -2.294467    -7.379058    -2.079298    0.000000    0.000000    0.000000    
-6.320076    97.382164    115.359642    -0.580609    -1.905419    -176.445206    0.021834    4.525253    -0.522669    -2.117149    -2.759993    -0.572972    4.730381    -5.738350    0.569838    -2.301512    2.165576    -0.637026    20.568939    -3.024533    -2.457156    -26.197508    1.985796    0.057889    1.312006    3.530233    -0.352700    3.335957    3.295135    -8.212068    -17.084055    3.371518    -10.037254    22.439682    5.001954    10.154278    -0.823824    6.950470    -1.290504    5.272612    6.014853    -20.041788    1.590394    -5.950189    -5.797552    -2.436976    9.251307    1.040325    2.623569    -4.658243    2.159914    0.000000    0.000000    0.000000    -2.602372    -4.841532    -6.056253    1.638058    9.671401    0.594146    -2.386922    -6.633734    -0.577382    0.000000    0.000000    0.000000    
-6.321816    97.394791    115.357231    -0.633598    -1.904073    -176.427719    -0.056154    4.528867    -0.523043    -2.107507    -2.729249    -0.575568    4.752525    -5.697918    0.607863    -2.313804    2.219119    -0.600717    20.610939    -3.062917    -2.475257    -26.269712    2.010939    0.019737    1.323573    3.538513    -0.367159    3.365523    3.301644    -8.207231    -17.112465    3.348499    -10.055655    22.471228    4.981806    10.128659    -0.809719    6.965972    -1.239963    5.209744    6.040501    -20.073483    1.527650    -5.990541    -5.900312    -2.459311    9.343913    1.071894    2.665047    -4.599661    2.226439    0.000000    0.000000    0.000000    -2.653232    -4.849389    -6.133999    1.638058    9.671401    0.594146    -2.338388    -6.592886    -0.545680    0.000000    0.000000    0.000000    
-6.321442    97.393829    115.339149    -0.633580    -1.885193    -176.473053    -0.054669    4.554765    -0.526061    -2.104125    -2.778094    -0.579371    4.725068    -5.564657    0.609871    -2.306045    2.272404    -0.585496    20.464045    -2.938882    -2.478595    -26.138678    2.000383    -0.014193    1.303652    3.531065    -0.425921    3.378414    3.296353    -8.123950    -17.127872    3.369014    -10.017797    22.481552    4.926019    10.161643    -0.825188    6.968767    -1.236519    5.161977    6.051101    -20.083977    1.525133    -5.994549    -5.934940    -2.452407    9.439983    1.093553    2.559533    -4.635363    2.309832    0.000000    0.000000    0.000000    -2.650324    -4.852061    -6.139586    1.267325    10.412503    2.359609    -2.242691    -7.759570    -2.000027    0.000000    0.000000    0.000000    
-6.321099    97.392159    115.321815    -0.629405    -1.873309    -176.521591    -0.042918    4.547699    -0.517658    -2.121267    -2.765660    -0.570583    4.755905    -5.388593    0.658904    -2.410966    2.106289    -0.549809    20.437107    -2.926009    -2.468405    -26.123367    2.015479    -0.046840    1.296315    3.540720    -0.447890    3.294384    3.314066    -8.058452    -17.152643    3.356000    -10.005651    22.501249    4.919587    10.173416    -0.820093    6.942392    -1.211057    5.058056    6.042743    -20.095034    1.518346    -6.011815    -5.895143    -2.432628    9.545711    1.093541    2.632970    -4.717892    2.284766    0.000000    0.000000    0.000000    -2.636388    -4.852654    -6.182281    1.238733    10.443419    2.403363    -2.301431    -7.747154    -1.937492    0.000000    0.000000    0.000000    
-6.323306    97.389816    115.305534    -0.635900    -1.853601    -176.560471    -0.042631    4.554287    -0.518984    -2.132661    -2.770202    -0.572341    4.482944    -5.015005    0.542256    -2.010503    1.682438    -0.560033    20.406721    -2.913570    -2.471603    -26.120955    2.036871    -0.051453    1.293018    3.557104    -0.454818    3.252640    3.333461    -8.058581    -17.172998    3.348583    -9.973174    22.526436    4.851328    10.182712    -0.824231    6.941990    -1.186323    5.020679    6.048049    -20.117975    1.504947    -6.022089    -5.860423    -2.418061    9.645553    1.104508    2.616781    -4.768810    2.297285    0.000000    0.000000    0.000000    -2.645167    -4.847882    -6.185646    1.242175    10.485876    2.467491    -2.254981    -7.789433    -1.963168    0.000000    0.000000    0.000000    
-6.316858    97.370766    115.263046    -0.563903    -1.803966    -176.682892    0.030389    4.524765    -0.471216    -2.145463    -2.706476    -0.520884    4.468558    -5.007640    0.534457    -1.965115    1.914795    -0.555276    20.401196    -2.912794    -2.489974    -26.137037    2.059955    -0.044605    1.291600    3.565091    -0.458041    3.132823    3.349108    -8.088257    -17.196157    3.334606    -9.959809    22.543613    4.855236    10.192400    -0.812544    6.900687    -1.171237    4.952548    6.019277    -20.110435    1.595763    -5.961826    -5.736347    -2.419051    9.719126    1.063870    2.631473    -4.933387    2.345905    0.000000    0.000000    0.000000    -2.554025    -4.815721    -6.077318    1.236282    10.529642    2.486504    -2.309721    -7.793023    -1.963470    0.000000    0.000000    0.000000    
-6.313828    97.367355    115.242676    -0.562672    -1.780399    -176.733322    0.024938    4.520707    -0.459302    -2.147022    -2.692176    -0.508873    4.654001    -4.975785    0.562034    -2.272580    2.079262    -0.596852    20.405695    -2.905636    -2.538223    -26.162270    2.066327    -0.006537    1.278372    3.575771    -0.464589    3.101810    3.361272    -8.114538    -17.213039    3.334347    -9.954564    22.550367    4.867795    10.223920    -0.797868    6.854675    -1.174349    4.925799    5.978909    -20.090527    1.586011    -5.996823    -5.688499    -2.386520    9.901048    1.083049    2.620137    -5.018697    2.317000    0.000000    0.000000    0.000000    -2.544557    -4.804061    -6.062843    1.224755    10.573373    2.618841    -2.322710    -7.827960    -2.063294    0.000000    0.000000    0.000000    
-6.314115    97.363869    115.223564    -0.564132    -1.757076    -176.776093    0.026434    4.517058    -0.453127    -2.157072    -2.677874    -0.502675    4.634623    -4.902968    0.575121    -2.239653    2.136564    -0.571296    20.379917    -2.904308    -2.526956    -26.136440    2.070296    -0.042591    1.244231    3.584837    -0.408323    3.088510    3.367944    -8.210574    -17.225527    3.330779    -9.950653    22.549744    4.928823    10.284110    -0.791743    6.775428    -1.232452    4.883850    5.908851    -20.038986    1.592581    -5.962325    -5.839432    -2.426600    9.914449    1.146552    2.640395    -5.051990    2.448754    0.000000    0.000000    0.000000    -2.542139    -4.798028    -6.102679    1.213109    10.618227    2.637918    -2.322953    -7.848125    -2.007136    0.000000    0.000000    0.000000    
-6.313329    97.361862    115.206406    -0.565868    -1.736460    -176.818207    0.025442    4.514144    -0.450917    -2.166676    -2.673720    -0.500561    4.698901    -4.729778    0.599621    -2.367557    2.023124    -0.569153    20.373156    -2.914685    -2.540340    -26.139879    2.089542    -0.023312    1.228332    3.553631    -0.383654    3.100176    3.333396    -8.290852    -17.228395    3.326480    -9.919634    22.541359    4.933203    10.300629    -0.773042    6.723900    -1.242605    4.867590    5.861678    -20.005894    1.596610    -5.943522    -5.828725    -2.434474    9.956815    1.144693    2.617865    -5.092162    2.491739    0.000000    0.000000    0.000000    -2.532961    -4.748588    -5.704365    1.270679    10.548739    2.288126    -2.321835    -7.826653    -2.001892    0.000000    0.000000    0.000000    
